<?xml version="1.0" standalone="no"?>
<!DOCTYPE svg PUBLIC "-//W3C//DTD SVG 20010904//EN"
 "http://www.w3.org/TR/2001/REC-SVG-20010904/DTD/svg10.dtd">
<svg version="1.0" xmlns="http://www.w3.org/2000/svg"
 width="472.000000pt" height="472.000000pt" viewBox="0 0 472.000000 472.000000"
 preserveAspectRatio="xMidYMid meet">
<metadata>
Created by potrace 1.11, written by Peter Selinger 2001-2013
</metadata>
<g transform="translate(0.000000,472.000000) scale(0.100000,-0.100000)"
fill="#000000" stroke="none">
<path d="M535 4702 c-119 -41 -205 -118 -254 -228 l-26 -59 0 -2060 0 -2060
33 -67 c39 -80 112 -155 190 -194 l57 -29 1825 0 1825 0 60 31 c67 35 135 98
170 159 58 98 55 -21 55 2170 0 1691 -3 2017 -14 2056 -37 121 -104 202 -214
256 l-76 38 -1790 2 c-1677 2 -1794 1 -1841 -15z"/>
</g>
</svg>
