<?xml version="1.0" encoding="utf-8"?>
<!-- Generator: Adobe Illustrator 16.0.0, SVG Export Plug-In . SVG Version: 6.00 Build 0)  -->
<!DOCTYPE svg PUBLIC "-//W3C//DTD SVG 1.1//EN" "http://www.w3.org/Graphics/SVG/1.1/DTD/svg11.dtd">
<svg version="1.1" xmlns="http://www.w3.org/2000/svg" xmlns:xlink="http://www.w3.org/1999/xlink" x="0px" y="0px" width="125px"
	 height="140px" viewBox="0 0 125 140" enable-background="new 0 0 125 140" xml:space="preserve">
<g id="PopViz" display="none">
	<path display="inline" fill="#C6C6C5" d="M113.262,117.267c0,5.368-4.352,9.721-9.719,9.721h-81.81c-5.368,0-9.72-4.353-9.72-9.721
		V23.307c0-5.368,4.352-9.72,9.72-9.72h81.81c5.367,0,9.719,4.352,9.719,9.72V117.267z"/>
	<g id="Layer_32_copy_5" display="inline">
		<circle fill="#3B609B" cx="36" cy="50.13" r="12.87"/>
		<circle fill="#09877D" cx="63" cy="50.13" r="12.87"/>
		<circle fill="#9E1C3D" cx="90" cy="50.13" r="12.87"/>
		<path fill="#3B609B" d="M54,117H18c0-19.88,8.06-45,18-45S54,97.12,54,117z"/>
		<path fill="#09877D" d="M81,117H45c0-19.88,8.06-45,18-45C72.939,72,81,97.12,81,117z"/>
		<path fill="#9E1C3D" d="M108,117H72c0-19.88,8.061-45,18-45S108,97.12,108,117z"/>
		<line fill="none" x1="-27" y1="81" x2="-63" y2="81"/>
	</g>
	<g id="Layer_56" display="inline">
	</g>
	<line display="inline" fill="none" x1="54" y1="117" x2="18" y2="117"/>
	<line display="inline" fill="none" x1="81" y1="117" x2="45" y2="117"/>
</g>
<g id="cleanreed" display="none">
	<path display="inline" fill="#66A465" d="M113.262,117.267c0,5.368-4.352,9.721-9.719,9.721h-81.81c-5.368,0-9.72-4.353-9.72-9.721
		V23.307c0-5.368,4.352-9.72,9.72-9.72h81.81c5.367,0,9.719,4.352,9.719,9.72V117.267z"/>
	<g id="Layer_56_copy" display="inline">
		<g id="Layer_64">
		</g>
		<g>
			<path fill="#DCF1F8" d="M70.795,18.263c-1.816,0.991-3.34,2.239-4.715,3.723c-1.36,1.472-2.494,3.139-3.476,4.887
				c-1.949,3.512-3.255,7.362-4.206,11.282c-0.945,3.928-1.551,7.939-1.945,11.973c-0.385,4.035-0.593,8.091-0.666,12.152
				c-0.134,8.124,0.275,16.264,1.002,24.37c0.371,4.053,0.814,8.101,1.355,12.133c0.272,2.016,0.563,4.029,0.877,6.036
				c0.312,1.999,0.646,4.027,1.025,5.97l-5.427-0.055c0.49-2.988,1-5.913,1.583-8.851c0.572-2.934,1.216-5.852,1.911-8.759
				c0.708-2.904,1.47-5.798,2.316-8.669c0.82-2.879,1.766-5.725,2.713-8.569c0.939-2.848,2.017-5.654,3.126-8.449
				c1.099-2.8,2.355-5.543,3.675-8.26c0.662-1.357,1.384-2.688,2.124-4.009c0.742-1.32,1.525-2.62,2.379-3.879
				c1.687-2.516,3.601-4.955,5.981-6.86l0.424,0.424c-1.781,2.339-3.087,4.954-4.278,7.611c-0.579,1.338-1.13,2.688-1.655,4.048
				c-0.526,1.361-0.992,2.748-1.475,4.127c-0.97,2.756-1.784,5.573-2.635,8.375c-0.838,2.808-1.574,5.65-2.352,8.48
				c-0.771,2.832-1.445,5.693-2.171,8.541l-2.104,8.567l-2.111,8.574c-0.691,2.855-1.407,5.735-2.035,8.572l-3.415,15.436
				l-2.012-15.49c-0.273-2.105-0.506-4.139-0.728-6.204c-0.218-2.058-0.413-4.116-0.588-6.176
				c-0.354-4.118-0.643-8.239-0.839-12.366c-0.387-8.253-0.451-16.53,0.038-24.796c0.243-4.132,0.636-8.262,1.272-12.363
				c0.627-4.101,1.472-8.179,2.666-12.169c1.199-3.982,2.765-7.896,4.998-11.448c1.116-1.772,2.43-3.43,3.945-4.881
				c0.752-0.731,1.573-1.39,2.429-1.993c0.42-0.312,0.894-0.566,1.335-0.849c0.452-0.257,0.912-0.473,1.368-0.711L70.795,18.263z"/>
		</g>
		<g>
			<path fill="#DCF1F8" d="M56.52,126c0,0-0.493-1.219-1.24-3.381c-0.748-2.161-1.772-5.261-2.838-9.02
				c-0.54-1.877-1.119-3.913-1.672-6.08c-0.557-2.166-1.121-4.456-1.661-6.835c-0.544-2.377-1.075-4.841-1.567-7.355
				c-0.506-2.511-0.958-5.074-1.399-7.642c-1.702-10.272-2.757-20.703-2.48-28.632c0.042-1.979,0.193-3.8,0.415-5.411
				c0.207-1.612,0.524-3.014,0.936-4.139c0.394-1.124,0.979-1.969,1.561-2.308c0.599-0.324,0.958-0.159,0.946-0.199
				c0.016,0.024-0.375,0.02-0.771,0.427c-0.397,0.407-0.645,1.234-0.769,2.311c-0.224,2.178,0.075,5.373,0.55,9.18
				c0.25,1.905,0.573,3.967,0.911,6.149c0.355,2.182,0.73,4.483,1.118,6.864c0.803,4.767,1.659,9.853,2.515,14.938
				c1.686,10.188,3.27,20.417,4.169,28.161c0.487,3.864,0.802,7.107,1.004,9.383C56.45,124.688,56.52,126,56.52,126z"/>
		</g>
	</g>
	<line display="inline" fill="none" x1="50.04" y1="106.92" x2="18" y2="117"/>
	<line display="inline" fill="none" x1="90" y1="106.92" x2="36.721" y2="106.92"/>
</g>
<g id="GDPnew" display="none">
	<path display="inline" fill="#FFFFFF" stroke="#ED1C24" stroke-width="3" stroke-miterlimit="10" d="M113.262,117.267
		c0,5.368-4.352,9.721-9.719,9.721h-81.81c-5.368,0-9.72-4.353-9.72-9.721V23.307c0-5.368,4.352-9.72,9.72-9.72h81.81
		c5.367,0,9.719,4.352,9.719,9.72V117.267z"/>
	<g id="Layer_56_copy_2" display="inline">
		<g id="Layer_64_copy">
		</g>
	</g>
	<line display="inline" fill="none" x1="50.04" y1="106.92" x2="18" y2="117"/>
	<line display="inline" fill="none" x1="90" y1="106.92" x2="36.721" y2="106.92"/>
	<g id="globe" display="inline">
		<circle fill="#FFFFFF" stroke="#ED1C24" stroke-miterlimit="10" cx="63" cy="72" r="45"/>
		<polygon fill="#ED1C24" points="-18,63 -27,60.364 -36,63 -33.364,54 -36,45 -27,47.636 -18,45 -20.636,54 		"/>
	</g>
</g>
<g id="GDPnew_copy">
	<path fill="#FFFFFF" stroke="#ED1C24" stroke-width="3" stroke-miterlimit="10" d="M108,72c0,0.66-0.01,1.31-0.04,1.96
		c-0.06,1.3-0.17,2.58-0.33,3.85c-0.6,4.61-1.89,9-3.77,13.061c-4.48,9.689-12.301,17.51-21.99,21.99
		c-4.061,1.88-8.45,3.17-13.061,3.77c-1.27,0.16-2.55,0.271-3.85,0.33c-0.65,0.03-1.3,0.04-1.96,0.04s-1.31-0.01-1.96-0.04
		c-1.3-0.06-2.58-0.17-3.85-0.33c-4.61-0.6-9-1.89-13.06-3.77c-9.69-4.48-17.51-12.301-21.99-21.99
		c-1.88-4.061-3.17-8.45-3.77-13.061c-0.16-1.27-0.27-2.55-0.33-3.85C18.01,73.31,18,72.66,18,72s0.01-1.31,0.04-1.96
		c0.06-1.3,0.17-2.58,0.33-3.85c0.6-4.61,1.89-9,3.77-13.06c4.48-9.69,12.3-17.51,21.99-21.99c4.06-1.88,8.45-3.17,13.06-3.77
		c1.27-0.16,2.55-0.27,3.85-0.33C61.69,27.01,62.34,27,63,27s1.31,0.01,1.96,0.04c1.3,0.06,2.58,0.17,3.85,0.33
		c4.61,0.6,9,1.89,13.061,3.77c9.689,4.48,17.51,12.3,21.99,21.99c1.88,4.06,3.17,8.45,3.77,13.06c0.16,1.27,0.271,2.55,0.33,3.85
		C107.99,70.69,108,71.34,108,72z"/>
	<g id="Layer_56_copy_4">
		<g id="Layer_64_copy_5">
		</g>
	</g>
	<g id="globe_copy">
		<path fill="#FFFFFF" stroke="#ED1C24" stroke-miterlimit="10" d="M108,72c0,0.66-0.01,1.31-0.04,1.96
			c-0.06,1.3-0.17,2.58-0.33,3.85c-0.6,4.61-1.89,9-3.77,13.061c-4.48,9.689-12.301,17.51-21.99,21.99
			c-4.061,1.88-8.45,3.17-13.061,3.77c-1.27,0.16-2.55,0.271-3.85,0.33c-0.65,0.03-1.3,0.04-1.96,0.04s-1.31-0.01-1.96-0.04
			c-1.3-0.06-2.58-0.17-3.85-0.33c-4.61-0.6-9-1.89-13.06-3.77c-9.69-4.48-17.51-12.301-21.99-21.99
			c-1.88-4.061-3.17-8.45-3.77-13.061c-0.16-1.27-0.27-2.55-0.33-3.85C18.01,73.31,18,72.66,18,72s0.01-1.31,0.04-1.96
			c0.06-1.3,0.17-2.58,0.33-3.85c0.6-4.61,1.89-9,3.77-13.06c4.48-9.69,12.3-17.51,21.99-21.99c4.06-1.88,8.45-3.17,13.06-3.77
			c1.27-0.16,2.55-0.27,3.85-0.33C61.69,27.01,62.34,27,63,27s1.31,0.01,1.96,0.04c1.3,0.06,2.58,0.17,3.85,0.33
			c4.61,0.6,9,1.89,13.061,3.77c9.689,4.48,17.51,12.3,21.99,21.99c1.88,4.06,3.17,8.45,3.77,13.06c0.16,1.27,0.271,2.55,0.33,3.85
			C107.99,70.69,108,71.34,108,72z"/>
		<path fill="none" stroke="#ED1C24" stroke-width="0.25" stroke-miterlimit="10" d="M99,72c0,2.65-0.23,5.35-0.67,8.05
			c-0.43,2.63-1.05,5.271-1.86,7.88h-0.01c-1.3,4.221-3.08,8.37-5.26,12.271c-2.58,4.64-5.74,8.95-9.33,12.66
			c-4.061,1.88-8.45,3.17-13.061,3.77c-1.27,0.16-2.55,0.271-3.85,0.33c-0.65,0.03-1.3,0.04-1.96,0.04s-1.31-0.01-1.96-0.04
			c-1.3-0.06-2.58-0.17-3.85-0.33c-4.61-0.6-9-1.89-13.06-3.77c-9.69-4.48-17.51-12.301-21.99-21.99
			c-1.88-4.061-3.17-8.45-3.77-13.061c-0.16-1.27-0.27-2.55-0.33-3.85C18.01,73.31,18,72.66,18,72s0.01-1.31,0.04-1.96
			c0.06-1.3,0.17-2.58,0.33-3.85c0.6-4.61,1.89-9,3.77-13.06c4.48-9.69,12.3-17.51,21.99-21.99c4.06-1.88,8.45-3.17,13.06-3.77
			c1.27-0.16,2.55-0.27,3.85-0.33C61.69,27.01,62.34,27,63,27s1.31,0.01,1.96,0.04c1.3,0.06,2.58,0.17,3.85,0.33
			c4.61,0.6,9,1.89,13.061,3.77c3.59,3.71,6.75,8.02,9.33,12.66c2.18,3.9,3.96,8.05,5.26,12.27h0.01
			c0.811,2.61,1.431,5.25,1.86,7.88C98.77,66.65,99,69.35,99,72z"/>
		<path fill="none" stroke="#ED1C24" stroke-width="0.25" stroke-miterlimit="10" d="M108,72c0,0.66-0.01,1.31-0.04,1.96
			c-0.06,1.3-0.17,2.58-0.33,3.85c-0.6,4.61-1.89,9-3.77,13.061c-4.48,9.689-12.301,17.51-21.99,21.99
			c-4.061,1.88-8.45,3.17-13.061,3.77c-1.27,0.16-2.55,0.271-3.85,0.33c-0.65,0.03-1.3,0.04-1.96,0.04s-1.31-0.01-1.96-0.04
			c-1.3-0.06-2.58-0.17-3.85-0.33c-4.61-0.6-9-1.89-13.06-3.77c-3.59-3.71-6.75-8.021-9.33-12.66c-2.18-3.9-3.96-8.05-5.26-12.271
			h-0.01c-0.81-2.609-1.43-5.25-1.86-7.88C27.23,77.35,27,74.65,27,72c0-2.65,0.23-5.35,0.67-8.05c0.43-2.63,1.05-5.27,1.86-7.88
			h0.01c1.3-4.22,3.08-8.37,5.26-12.27c2.58-4.64,5.74-8.95,9.33-12.66c4.06-1.88,8.45-3.17,13.06-3.77
			c1.27-0.16,2.55-0.27,3.85-0.33C61.69,27.01,62.34,27,63,27s1.31,0.01,1.96,0.04c1.3,0.06,2.58,0.17,3.85,0.33
			c4.61,0.6,9,1.89,13.061,3.77c9.689,4.48,17.51,12.3,21.99,21.99c1.88,4.06,3.17,8.45,3.77,13.06c0.16,1.27,0.271,2.55,0.33,3.85
			C107.99,70.69,108,71.34,108,72z"/>
		<path fill="none" stroke="#ED1C24" stroke-width="0.25" stroke-miterlimit="10" d="M90,72c0,4.15-0.56,8.42-1.62,12.66
			c-0.8,3.21-1.88,6.41-3.21,9.51c-1.7,3.96-3.8,7.76-6.24,11.29v0.01c-2.93,4.21-6.34,8.011-10.12,11.16
			c-1.27,0.16-2.55,0.271-3.85,0.33c-0.65,0.03-1.3,0.04-1.96,0.04s-1.31-0.01-1.96-0.04c-1.3-0.06-2.58-0.17-3.85-0.33
			c-4.61-0.6-9-1.89-13.06-3.77c-9.69-4.48-17.51-12.301-21.99-21.99c-1.88-4.061-3.17-8.45-3.77-13.061
			c-0.16-1.27-0.27-2.55-0.33-3.85C18.01,73.31,18,72.66,18,72s0.01-1.31,0.04-1.96c0.06-1.3,0.17-2.58,0.33-3.85
			c0.6-4.61,1.89-9,3.77-13.06c4.48-9.69,12.3-17.51,21.99-21.99c4.06-1.88,8.45-3.17,13.06-3.77c1.27-0.16,2.55-0.27,3.85-0.33
			C61.69,27.01,62.34,27,63,27s1.31,0.01,1.96,0.04c1.3,0.06,2.58,0.17,3.85,0.33c3.78,3.15,7.19,6.95,10.12,11.16v0.01
			c2.44,3.53,4.54,7.33,6.24,11.29c1.33,3.1,2.41,6.3,3.21,9.51C89.44,63.58,90,67.85,90,72z"/>
		<path fill="none" stroke="#ED1C24" stroke-width="0.25" stroke-miterlimit="10" d="M99,72c0,2.65-0.23,5.35-0.67,8.05
			c-0.43,2.63-1.05,5.271-1.86,7.88h-0.01c-1.3,4.221-3.08,8.37-5.26,12.271c-2.58,4.64-5.74,8.95-9.33,12.66
			c-4.061,1.88-8.45,3.17-13.061,3.77c-1.27,0.16-2.55,0.271-3.85,0.33c-0.65,0.03-1.3,0.04-1.96,0.04s-1.31-0.01-1.96-0.04
			c-1.3-0.06-2.58-0.17-3.85-0.33c-4.61-0.6-9-1.89-13.06-3.77c-9.69-4.48-17.51-12.301-21.99-21.99
			c-1.88-4.061-3.17-8.45-3.77-13.061c-0.16-1.27-0.27-2.55-0.33-3.85C18.01,73.31,18,72.66,18,72s0.01-1.31,0.04-1.96
			c0.06-1.3,0.17-2.58,0.33-3.85c0.6-4.61,1.89-9,3.77-13.06c4.48-9.69,12.3-17.51,21.99-21.99c4.06-1.88,8.45-3.17,13.06-3.77
			c1.27-0.16,2.55-0.27,3.85-0.33C61.69,27.01,62.34,27,63,27s1.31,0.01,1.96,0.04c1.3,0.06,2.58,0.17,3.85,0.33
			c4.61,0.6,9,1.89,13.061,3.77c3.59,3.71,6.75,8.02,9.33,12.66c2.18,3.9,3.96,8.05,5.26,12.27h0.01
			c0.811,2.61,1.431,5.25,1.86,7.88C98.77,66.65,99,69.35,99,72z"/>
		<path fill="none" stroke="#ED1C24" stroke-width="0.25" stroke-miterlimit="10" d="M81,72c0,4.88-0.78,10.26-2.22,15.78
			c-0.82,3.18-1.87,6.41-3.12,9.6c-1.32,3.39-2.86,6.73-4.61,9.95c-1.819,3.39-3.87,6.63-6.09,9.63c-0.65,0.03-1.3,0.04-1.96,0.04
			s-1.31-0.01-1.96-0.04c-1.3-0.06-2.58-0.17-3.85-0.33c-4.61-0.6-9-1.89-13.06-3.77c-9.69-4.48-17.51-12.301-21.99-21.99
			c-1.88-4.061-3.17-8.45-3.77-13.061c-0.16-1.27-0.27-2.55-0.33-3.85C18.01,73.31,18,72.66,18,72s0.01-1.31,0.04-1.96
			c0.06-1.3,0.17-2.58,0.33-3.85c0.6-4.61,1.89-9,3.77-13.06c4.48-9.69,12.3-17.51,21.99-21.99c4.06-1.88,8.45-3.17,13.06-3.77
			c1.27-0.16,2.55-0.27,3.85-0.33C61.69,27.01,62.34,27,63,27s1.31,0.01,1.96,0.04c2.22,3,4.271,6.24,6.09,9.63
			c1.75,3.22,3.29,6.56,4.61,9.95c1.25,3.19,2.3,6.42,3.12,9.6C80.22,61.74,81,67.12,81,72z"/>
		<path fill="none" stroke="#ED1C24" stroke-width="0.25" stroke-miterlimit="10" d="M108,72c0,0.66-0.01,1.31-0.04,1.96
			c-0.06,1.3-0.17,2.58-0.33,3.85c-0.6,4.61-1.89,9-3.77,13.061c-4.48,9.689-12.301,17.51-21.99,21.99
			c-4.061,1.88-8.45,3.17-13.061,3.77c-1.27,0.16-2.55,0.271-3.85,0.33c-0.65,0.03-1.3,0.04-1.96,0.04s-1.31-0.01-1.96-0.04
			c-1.3-0.06-2.58-0.17-3.85-0.33c-4.61-0.6-9-1.89-13.06-3.77c-3.59-3.71-6.75-8.021-9.33-12.66c-2.18-3.9-3.96-8.05-5.26-12.271
			h-0.01c-0.81-2.609-1.43-5.25-1.86-7.88C27.23,77.35,27,74.65,27,72c0-2.65,0.23-5.35,0.67-8.05c0.43-2.63,1.05-5.27,1.86-7.88
			h0.01c1.3-4.22,3.08-8.37,5.26-12.27c2.58-4.64,5.74-8.95,9.33-12.66c4.06-1.88,8.45-3.17,13.06-3.77
			c1.27-0.16,2.55-0.27,3.85-0.33C61.69,27.01,62.34,27,63,27s1.31,0.01,1.96,0.04c1.3,0.06,2.58,0.17,3.85,0.33
			c4.61,0.6,9,1.89,13.061,3.77c9.689,4.48,17.51,12.3,21.99,21.99c1.88,4.06,3.17,8.45,3.77,13.06c0.16,1.27,0.271,2.55,0.33,3.85
			C107.99,70.69,108,71.34,108,72z"/>
		<path fill="none" stroke="#ED1C24" stroke-width="0.25" stroke-miterlimit="10" d="M108,72c0,0.66-0.01,1.31-0.04,1.96
			c-0.06,1.3-0.17,2.58-0.33,3.85c-0.6,4.61-1.89,9-3.77,13.061c-4.48,9.689-12.301,17.51-21.99,21.99
			c-4.061,1.88-8.45,3.17-13.061,3.77c-1.27,0.16-2.55,0.271-3.85,0.33c-0.65,0.03-1.3,0.04-1.96,0.04s-1.31-0.01-1.96-0.04
			c-1.3-0.06-2.58-0.17-3.85-0.33c-3.78-3.149-7.19-6.95-10.12-11.16v-0.01c-2.44-3.53-4.54-7.33-6.24-11.29
			c-1.33-3.1-2.41-6.3-3.21-9.51C36.56,80.42,36,76.15,36,72c0-4.15,0.56-8.42,1.62-12.66c0.8-3.21,1.88-6.41,3.21-9.51
			c1.7-3.96,3.8-7.76,6.24-11.29v-0.01c2.93-4.21,6.34-8.01,10.12-11.16c1.27-0.16,2.55-0.27,3.85-0.33C61.69,27.01,62.34,27,63,27
			s1.31,0.01,1.96,0.04c1.3,0.06,2.58,0.17,3.85,0.33c4.61,0.6,9,1.89,13.061,3.77c9.689,4.48,17.51,12.3,21.99,21.99
			c1.88,4.06,3.17,8.45,3.77,13.06c0.16,1.27,0.271,2.55,0.33,3.85C107.99,70.69,108,71.34,108,72z"/>
		<path fill="none" stroke="#ED1C24" stroke-width="0.25" stroke-miterlimit="10" d="M107.96,70.04c-0.06-1.3-0.17-2.58-0.33-3.85
			c-0.6-4.61-1.89-9-3.77-13.06c-4.48-9.69-12.301-17.51-21.99-21.99c-4.061-1.88-8.45-3.17-13.061-3.77
			c-1.27-0.16-2.55-0.27-3.85-0.33C64.31,27.01,63.66,27,63,27s-1.31,0.01-1.96,0.04c-2.22,3-4.27,6.24-6.09,9.63
			c-1.75,3.22-3.29,6.56-4.61,9.95c-1.25,3.19-2.3,6.42-3.12,9.6C45.78,61.74,45,67.12,45,72s0.78,10.26,2.22,15.78
			c0.82,3.18,1.87,6.41,3.12,9.6c1.32,3.39,2.86,6.73,4.61,9.95c1.82,3.39,3.87,6.63,6.09,9.63c0.65,0.03,1.3,0.04,1.96,0.04
			s1.31-0.01,1.96-0.04c1.3-0.06,2.58-0.17,3.85-0.33c4.61-0.6,9-1.89,13.061-3.77c9.689-4.48,17.51-12.301,21.99-21.99
			c1.88-4.061,3.17-8.45,3.77-13.061c0.16-1.27,0.271-2.55,0.33-3.85c0.03-0.65,0.04-1.3,0.04-1.96S107.99,70.69,107.96,70.04z"/>
		<polyline fill="none" stroke="#ED1C24" stroke-width="0.25" stroke-miterlimit="10" points="63,117 63,108 63,99 63,90 63,72 
			63,54 63,45 63,36 63,27 		"/>
		<path fill="none" stroke="#ED1C24" stroke-width="0.25" stroke-miterlimit="10" d="M108,72c0,0.66-0.01,1.31-0.04,1.96
			c-0.06,1.3-0.17,2.58-0.33,3.85c-0.6,4.61-1.89,9-3.77,13.061c-3.71,3.59-8.021,6.75-12.66,9.33c-3.9,2.18-8.05,3.96-12.271,5.26
			v0.01c-2.609,0.811-5.25,1.431-7.88,1.86C68.35,107.77,65.65,108,63,108c-2.65,0-5.35-0.23-8.05-0.67
			c-2.63-0.43-5.27-1.05-7.88-1.86v-0.01c-4.22-1.3-8.37-3.08-12.27-5.26c-4.64-2.58-8.95-5.74-12.66-9.33
			c-1.88-4.061-3.17-8.45-3.77-13.061c-0.16-1.27-0.27-2.55-0.33-3.85C18.01,73.31,18,72.66,18,72s0.01-1.31,0.04-1.96
			c0.06-1.3,0.17-2.58,0.33-3.85c0.6-4.61,1.89-9,3.77-13.06c4.48-9.69,12.3-17.51,21.99-21.99c4.06-1.88,8.45-3.17,13.06-3.77
			c1.27-0.16,2.55-0.27,3.85-0.33C61.69,27.01,62.34,27,63,27s1.31,0.01,1.96,0.04c1.3,0.06,2.58,0.17,3.85,0.33
			c4.61,0.6,9,1.89,13.061,3.77c9.689,4.48,17.51,12.3,21.99,21.99c1.88,4.06,3.17,8.45,3.77,13.06c0.16,1.27,0.271,2.55,0.33,3.85
			C107.99,70.69,108,71.34,108,72z"/>
		<path fill="none" stroke="#ED1C24" stroke-width="0.25" stroke-miterlimit="10" d="M108,72c0,0.66-0.01,1.31-0.04,1.96
			c-0.06,1.3-0.17,2.58-0.33,3.85c-0.6,4.61-1.89,9-3.77,13.061c-4.48,9.689-12.301,17.51-21.99,21.99
			c-4.061,1.88-8.45,3.17-13.061,3.77c-1.27,0.16-2.55,0.271-3.85,0.33c-0.65,0.03-1.3,0.04-1.96,0.04s-1.31-0.01-1.96-0.04
			c-1.3-0.06-2.58-0.17-3.85-0.33c-4.61-0.6-9-1.89-13.06-3.77c-9.69-4.48-17.51-12.301-21.99-21.99
			c-1.88-4.061-3.17-8.45-3.77-13.061c-0.16-1.27-0.27-2.55-0.33-3.85C18.01,73.31,18,72.66,18,72s0.01-1.31,0.04-1.96
			c0.06-1.3,0.17-2.58,0.33-3.85c0.6-4.61,1.89-9,3.77-13.06c3.71-3.59,8.02-6.75,12.66-9.33c3.9-2.18,8.05-3.96,12.27-5.26v-0.01
			c2.61-0.81,5.25-1.43,7.88-1.86C57.65,36.23,60.35,36,63,36c2.65,0,5.35,0.23,8.05,0.67c2.63,0.43,5.271,1.05,7.88,1.86v0.01
			c4.221,1.3,8.37,3.08,12.271,5.26c4.64,2.58,8.95,5.74,12.66,9.33c1.88,4.06,3.17,8.45,3.77,13.06c0.16,1.27,0.271,2.55,0.33,3.85
			C107.99,70.69,108,71.34,108,72z"/>
		<path fill="none" stroke="#ED1C24" stroke-width="0.25" stroke-miterlimit="10" d="M108,72c0,0.66-0.01,1.31-0.04,1.96
			c-0.06,1.3-0.17,2.58-0.33,3.85c-3.149,3.78-6.95,7.19-11.16,10.12h-0.01c-3.53,2.44-7.33,4.54-11.29,6.24
			c-3.1,1.33-6.3,2.41-9.51,3.21C71.42,98.44,67.15,99,63,99c-4.15,0-8.42-0.56-12.66-1.62c-3.21-0.8-6.41-1.88-9.51-3.21
			c-3.96-1.7-7.76-3.8-11.29-6.24h-0.01c-4.21-2.93-8.01-6.34-11.16-10.12c-0.16-1.27-0.27-2.55-0.33-3.85
			C18.01,73.31,18,72.66,18,72s0.01-1.31,0.04-1.96c0.06-1.3,0.17-2.58,0.33-3.85c0.6-4.61,1.89-9,3.77-13.06
			c4.48-9.69,12.3-17.51,21.99-21.99c4.06-1.88,8.45-3.17,13.06-3.77c1.27-0.16,2.55-0.27,3.85-0.33C61.69,27.01,62.34,27,63,27
			s1.31,0.01,1.96,0.04c1.3,0.06,2.58,0.17,3.85,0.33c4.61,0.6,9,1.89,13.061,3.77c9.689,4.48,17.51,12.3,21.99,21.99
			c1.88,4.06,3.17,8.45,3.77,13.06c0.16,1.27,0.271,2.55,0.33,3.85C107.99,70.69,108,71.34,108,72z"/>
		<path fill="none" stroke="#ED1C24" stroke-width="0.25" stroke-miterlimit="10" d="M108,72c0,0.66-0.01,1.31-0.04,1.96
			c-0.06,1.3-0.17,2.58-0.33,3.85c-0.6,4.61-1.89,9-3.77,13.061c-3.71,3.59-8.021,6.75-12.66,9.33c-3.9,2.18-8.05,3.96-12.271,5.26
			v0.01c-2.609,0.811-5.25,1.431-7.88,1.86C68.35,107.77,65.65,108,63,108c-2.65,0-5.35-0.23-8.05-0.67
			c-2.63-0.43-5.27-1.05-7.88-1.86v-0.01c-4.22-1.3-8.37-3.08-12.27-5.26c-4.64-2.58-8.95-5.74-12.66-9.33
			c-1.88-4.061-3.17-8.45-3.77-13.061c-0.16-1.27-0.27-2.55-0.33-3.85C18.01,73.31,18,72.66,18,72s0.01-1.31,0.04-1.96
			c0.06-1.3,0.17-2.58,0.33-3.85c0.6-4.61,1.89-9,3.77-13.06c4.48-9.69,12.3-17.51,21.99-21.99c4.06-1.88,8.45-3.17,13.06-3.77
			c1.27-0.16,2.55-0.27,3.85-0.33C61.69,27.01,62.34,27,63,27s1.31,0.01,1.96,0.04c1.3,0.06,2.58,0.17,3.85,0.33
			c4.61,0.6,9,1.89,13.061,3.77c9.689,4.48,17.51,12.3,21.99,21.99c1.88,4.06,3.17,8.45,3.77,13.06c0.16,1.27,0.271,2.55,0.33,3.85
			C107.99,70.69,108,71.34,108,72z"/>
		<path fill="none" stroke="#ED1C24" stroke-width="0.25" stroke-miterlimit="10" d="M108,72c0,0.66-0.01,1.31-0.04,1.96
			c-3,2.22-6.24,4.271-9.63,6.09c-3.22,1.75-6.561,3.29-9.95,4.61c-3.189,1.25-6.42,2.3-9.6,3.12C73.26,89.22,67.88,90,63,90
			s-10.26-0.78-15.78-2.22c-3.18-0.82-6.41-1.87-9.6-3.12c-3.39-1.32-6.73-2.86-9.95-4.61c-3.39-1.819-6.63-3.87-9.63-6.09
			C18.01,73.31,18,72.66,18,72s0.01-1.31,0.04-1.96c0.06-1.3,0.17-2.58,0.33-3.85c0.6-4.61,1.89-9,3.77-13.06
			c4.48-9.69,12.3-17.51,21.99-21.99c4.06-1.88,8.45-3.17,13.06-3.77c1.27-0.16,2.55-0.27,3.85-0.33C61.69,27.01,62.34,27,63,27
			s1.31,0.01,1.96,0.04c1.3,0.06,2.58,0.17,3.85,0.33c4.61,0.6,9,1.89,13.061,3.77c9.689,4.48,17.51,12.3,21.99,21.99
			c1.88,4.06,3.17,8.45,3.77,13.06c0.16,1.27,0.271,2.55,0.33,3.85C107.99,70.69,108,71.34,108,72z"/>
		<path fill="none" stroke="#ED1C24" stroke-width="0.25" stroke-miterlimit="10" d="M108,72c0,0.66-0.01,1.31-0.04,1.96
			c-0.06,1.3-0.17,2.58-0.33,3.85c-0.6,4.61-1.89,9-3.77,13.061c-4.48,9.689-12.301,17.51-21.99,21.99
			c-4.061,1.88-8.45,3.17-13.061,3.77c-1.27,0.16-2.55,0.271-3.85,0.33c-0.65,0.03-1.3,0.04-1.96,0.04s-1.31-0.01-1.96-0.04
			c-1.3-0.06-2.58-0.17-3.85-0.33c-4.61-0.6-9-1.89-13.06-3.77c-9.69-4.48-17.51-12.301-21.99-21.99
			c-1.88-4.061-3.17-8.45-3.77-13.061c-0.16-1.27-0.27-2.55-0.33-3.85C18.01,73.31,18,72.66,18,72s0.01-1.31,0.04-1.96
			c0.06-1.3,0.17-2.58,0.33-3.85c0.6-4.61,1.89-9,3.77-13.06c3.71-3.59,8.02-6.75,12.66-9.33c3.9-2.18,8.05-3.96,12.27-5.26v-0.01
			c2.61-0.81,5.25-1.43,7.88-1.86C57.65,36.23,60.35,36,63,36c2.65,0,5.35,0.23,8.05,0.67c2.63,0.43,5.271,1.05,7.88,1.86v0.01
			c4.221,1.3,8.37,3.08,12.271,5.26c4.64,2.58,8.95,5.74,12.66,9.33c1.88,4.06,3.17,8.45,3.77,13.06c0.16,1.27,0.271,2.55,0.33,3.85
			C107.99,70.69,108,71.34,108,72z"/>
		<path fill="none" stroke="#ED1C24" stroke-width="0.25" stroke-miterlimit="10" d="M108,72c0,0.66-0.01,1.31-0.04,1.96
			c-0.06,1.3-0.17,2.58-0.33,3.85c-0.6,4.61-1.89,9-3.77,13.061c-4.48,9.689-12.301,17.51-21.99,21.99
			c-4.061,1.88-8.45,3.17-13.061,3.77c-1.27,0.16-2.55,0.271-3.85,0.33c-0.65,0.03-1.3,0.04-1.96,0.04s-1.31-0.01-1.96-0.04
			c-1.3-0.06-2.58-0.17-3.85-0.33c-4.61-0.6-9-1.89-13.06-3.77c-9.69-4.48-17.51-12.301-21.99-21.99
			c-1.88-4.061-3.17-8.45-3.77-13.061c-0.16-1.27-0.27-2.55-0.33-3.85C18.01,73.31,18,72.66,18,72s0.01-1.31,0.04-1.96
			c0.06-1.3,0.17-2.58,0.33-3.85c3.15-3.78,6.95-7.19,11.16-10.12h0.01c3.53-2.44,7.33-4.54,11.29-6.24c3.1-1.33,6.3-2.41,9.51-3.21
			C54.58,45.56,58.85,45,63,45c4.15,0,8.42,0.56,12.66,1.62c3.21,0.8,6.41,1.88,9.51,3.21c3.96,1.7,7.76,3.8,11.29,6.24h0.01
			c4.21,2.93,8.011,6.34,11.16,10.12c0.16,1.27,0.271,2.55,0.33,3.85C107.99,70.69,108,71.34,108,72z"/>
		<path fill="none" stroke="#ED1C24" stroke-width="0.25" stroke-miterlimit="10" d="M108,72c0,0.66-0.01,1.31-0.04,1.96
			c-0.06,1.3-0.17,2.58-0.33,3.85c-0.6,4.61-1.89,9-3.77,13.061c-4.48,9.689-12.301,17.51-21.99,21.99
			c-4.061,1.88-8.45,3.17-13.061,3.77c-1.27,0.16-2.55,0.271-3.85,0.33c-0.65,0.03-1.3,0.04-1.96,0.04s-1.31-0.01-1.96-0.04
			c-1.3-0.06-2.58-0.17-3.85-0.33c-4.61-0.6-9-1.89-13.06-3.77c-9.69-4.48-17.51-12.301-21.99-21.99
			c-1.88-4.061-3.17-8.45-3.77-13.061c-0.16-1.27-0.27-2.55-0.33-3.85C18.01,73.31,18,72.66,18,72s0.01-1.31,0.04-1.96
			c3-2.22,6.24-4.27,9.63-6.09c3.22-1.75,6.56-3.29,9.95-4.61c3.19-1.25,6.42-2.3,9.6-3.12C52.74,54.78,58.12,54,63,54
			s10.26,0.78,15.78,2.22c3.18,0.82,6.41,1.87,9.6,3.12c3.39,1.32,6.73,2.86,9.95,4.61c3.39,1.82,6.63,3.87,9.63,6.09
			C107.99,70.69,108,71.34,108,72z"/>
		<polyline fill="none" stroke="#ED1C24" stroke-width="0.25" stroke-miterlimit="10" points="18,72 27,72 36,72 45,72 63,72 81,72 
			90,72 99,72 108,72 		"/>
	</g>
</g>
<g id="GDPnew_copy_2">
	<path fill="#FFFFFF" stroke="#ED1C24" stroke-width="3" stroke-miterlimit="10" d="M113.262,117.267
		c0,5.368-4.352,9.721-9.719,9.721h-81.81c-5.368,0-9.72-4.353-9.72-9.721V23.307c0-5.368,4.352-9.72,9.72-9.72h81.81
		c5.367,0,9.719,4.352,9.719,9.72V117.267z"/>
	<g id="Layer_56_copy_5">
		<g id="Layer_64_copy_6">
		</g>
	</g>
	<g id="globe_copy_2">
		<path fill="#FFFFFF" stroke="#ED1C24" stroke-miterlimit="10" d="M108,72c0,0.66-0.01,1.31-0.04,1.96
			c-0.06,1.3-0.17,2.58-0.33,3.85c-0.6,4.61-1.89,9-3.77,13.061c-4.48,9.689-12.301,17.51-21.99,21.99
			c-4.061,1.88-8.45,3.17-13.061,3.77c-1.27,0.16-2.55,0.271-3.85,0.33c-0.65,0.03-1.3,0.04-1.96,0.04s-1.31-0.01-1.96-0.04
			c-1.3-0.06-2.58-0.17-3.85-0.33c-4.61-0.6-9-1.89-13.06-3.77c-9.69-4.48-17.51-12.301-21.99-21.99
			c-1.88-4.061-3.17-8.45-3.77-13.061c-0.16-1.27-0.27-2.55-0.33-3.85C18.01,73.31,18,72.66,18,72s0.01-1.31,0.04-1.96
			c0.06-1.3,0.17-2.58,0.33-3.85c0.6-4.61,1.89-9,3.77-13.06c4.48-9.69,12.3-17.51,21.99-21.99c4.06-1.88,8.45-3.17,13.06-3.77
			c1.27-0.16,2.55-0.27,3.85-0.33C61.69,27.01,62.34,27,63,27s1.31,0.01,1.96,0.04c1.3,0.06,2.58,0.17,3.85,0.33
			c4.61,0.6,9,1.89,13.061,3.77c9.689,4.48,17.51,12.3,21.99,21.99c1.88,4.06,3.17,8.45,3.77,13.06c0.16,1.27,0.271,2.55,0.33,3.85
			C107.99,70.69,108,71.34,108,72z"/>
		<path fill="none" stroke="#ED1C24" stroke-width="0.25" stroke-miterlimit="10" d="M99,72c0,2.65-0.23,5.35-0.67,8.05
			c-0.43,2.63-1.05,5.271-1.86,7.88h-0.01c-1.3,4.221-3.08,8.37-5.26,12.271c-2.58,4.64-5.74,8.95-9.33,12.66
			c-4.061,1.88-8.45,3.17-13.061,3.77c-1.27,0.16-2.55,0.271-3.85,0.33c-0.65,0.03-1.3,0.04-1.96,0.04s-1.31-0.01-1.96-0.04
			c-1.3-0.06-2.58-0.17-3.85-0.33c-4.61-0.6-9-1.89-13.06-3.77c-9.69-4.48-17.51-12.301-21.99-21.99
			c-1.88-4.061-3.17-8.45-3.77-13.061c-0.16-1.27-0.27-2.55-0.33-3.85C18.01,73.31,18,72.66,18,72s0.01-1.31,0.04-1.96
			c0.06-1.3,0.17-2.58,0.33-3.85c0.6-4.61,1.89-9,3.77-13.06c4.48-9.69,12.3-17.51,21.99-21.99c4.06-1.88,8.45-3.17,13.06-3.77
			c1.27-0.16,2.55-0.27,3.85-0.33C61.69,27.01,62.34,27,63,27s1.31,0.01,1.96,0.04c1.3,0.06,2.58,0.17,3.85,0.33
			c4.61,0.6,9,1.89,13.061,3.77c3.59,3.71,6.75,8.02,9.33,12.66c2.18,3.9,3.96,8.05,5.26,12.27h0.01
			c0.811,2.61,1.431,5.25,1.86,7.88C98.77,66.65,99,69.35,99,72z"/>
		<path fill="none" stroke="#ED1C24" stroke-width="0.25" stroke-miterlimit="10" d="M108,72c0,0.66-0.01,1.31-0.04,1.96
			c-0.06,1.3-0.17,2.58-0.33,3.85c-0.6,4.61-1.89,9-3.77,13.061c-4.48,9.689-12.301,17.51-21.99,21.99
			c-4.061,1.88-8.45,3.17-13.061,3.77c-1.27,0.16-2.55,0.271-3.85,0.33c-0.65,0.03-1.3,0.04-1.96,0.04s-1.31-0.01-1.96-0.04
			c-1.3-0.06-2.58-0.17-3.85-0.33c-4.61-0.6-9-1.89-13.06-3.77c-3.59-3.71-6.75-8.021-9.33-12.66c-2.18-3.9-3.96-8.05-5.26-12.271
			h-0.01c-0.81-2.609-1.43-5.25-1.86-7.88C27.23,77.35,27,74.65,27,72c0-2.65,0.23-5.35,0.67-8.05c0.43-2.63,1.05-5.27,1.86-7.88
			h0.01c1.3-4.22,3.08-8.37,5.26-12.27c2.58-4.64,5.74-8.95,9.33-12.66c4.06-1.88,8.45-3.17,13.06-3.77
			c1.27-0.16,2.55-0.27,3.85-0.33C61.69,27.01,62.34,27,63,27s1.31,0.01,1.96,0.04c1.3,0.06,2.58,0.17,3.85,0.33
			c4.61,0.6,9,1.89,13.061,3.77c9.689,4.48,17.51,12.3,21.99,21.99c1.88,4.06,3.17,8.45,3.77,13.06c0.16,1.27,0.271,2.55,0.33,3.85
			C107.99,70.69,108,71.34,108,72z"/>
		<path fill="none" stroke="#ED1C24" stroke-width="0.25" stroke-miterlimit="10" d="M90,72c0,4.15-0.56,8.42-1.62,12.66
			c-0.8,3.21-1.88,6.41-3.21,9.51c-1.7,3.96-3.8,7.76-6.24,11.29v0.01c-2.93,4.21-6.34,8.011-10.12,11.16
			c-1.27,0.16-2.55,0.271-3.85,0.33c-0.65,0.03-1.3,0.04-1.96,0.04s-1.31-0.01-1.96-0.04c-1.3-0.06-2.58-0.17-3.85-0.33
			c-4.61-0.6-9-1.89-13.06-3.77c-9.69-4.48-17.51-12.301-21.99-21.99c-1.88-4.061-3.17-8.45-3.77-13.061
			c-0.16-1.27-0.27-2.55-0.33-3.85C18.01,73.31,18,72.66,18,72s0.01-1.31,0.04-1.96c0.06-1.3,0.17-2.58,0.33-3.85
			c0.6-4.61,1.89-9,3.77-13.06c4.48-9.69,12.3-17.51,21.99-21.99c4.06-1.88,8.45-3.17,13.06-3.77c1.27-0.16,2.55-0.27,3.85-0.33
			C61.69,27.01,62.34,27,63,27s1.31,0.01,1.96,0.04c1.3,0.06,2.58,0.17,3.85,0.33c3.78,3.15,7.19,6.95,10.12,11.16v0.01
			c2.44,3.53,4.54,7.33,6.24,11.29c1.33,3.1,2.41,6.3,3.21,9.51C89.44,63.58,90,67.85,90,72z"/>
		<path fill="none" stroke="#ED1C24" stroke-width="0.25" stroke-miterlimit="10" d="M99,72c0,2.65-0.23,5.35-0.67,8.05
			c-0.43,2.63-1.05,5.271-1.86,7.88h-0.01c-1.3,4.221-3.08,8.37-5.26,12.271c-2.58,4.64-5.74,8.95-9.33,12.66
			c-4.061,1.88-8.45,3.17-13.061,3.77c-1.27,0.16-2.55,0.271-3.85,0.33c-0.65,0.03-1.3,0.04-1.96,0.04s-1.31-0.01-1.96-0.04
			c-1.3-0.06-2.58-0.17-3.85-0.33c-4.61-0.6-9-1.89-13.06-3.77c-9.69-4.48-17.51-12.301-21.99-21.99
			c-1.88-4.061-3.17-8.45-3.77-13.061c-0.16-1.27-0.27-2.55-0.33-3.85C18.01,73.31,18,72.66,18,72s0.01-1.31,0.04-1.96
			c0.06-1.3,0.17-2.58,0.33-3.85c0.6-4.61,1.89-9,3.77-13.06c4.48-9.69,12.3-17.51,21.99-21.99c4.06-1.88,8.45-3.17,13.06-3.77
			c1.27-0.16,2.55-0.27,3.85-0.33C61.69,27.01,62.34,27,63,27s1.31,0.01,1.96,0.04c1.3,0.06,2.58,0.17,3.85,0.33
			c4.61,0.6,9,1.89,13.061,3.77c3.59,3.71,6.75,8.02,9.33,12.66c2.18,3.9,3.96,8.05,5.26,12.27h0.01
			c0.811,2.61,1.431,5.25,1.86,7.88C98.77,66.65,99,69.35,99,72z"/>
		<path fill="none" stroke="#ED1C24" stroke-width="0.25" stroke-miterlimit="10" d="M81,72c0,4.88-0.78,10.26-2.22,15.78
			c-0.82,3.18-1.87,6.41-3.12,9.6c-1.32,3.39-2.86,6.73-4.61,9.95c-1.819,3.39-3.87,6.63-6.09,9.63c-0.65,0.03-1.3,0.04-1.96,0.04
			s-1.31-0.01-1.96-0.04c-1.3-0.06-2.58-0.17-3.85-0.33c-4.61-0.6-9-1.89-13.06-3.77c-9.69-4.48-17.51-12.301-21.99-21.99
			c-1.88-4.061-3.17-8.45-3.77-13.061c-0.16-1.27-0.27-2.55-0.33-3.85C18.01,73.31,18,72.66,18,72s0.01-1.31,0.04-1.96
			c0.06-1.3,0.17-2.58,0.33-3.85c0.6-4.61,1.89-9,3.77-13.06c4.48-9.69,12.3-17.51,21.99-21.99c4.06-1.88,8.45-3.17,13.06-3.77
			c1.27-0.16,2.55-0.27,3.85-0.33C61.69,27.01,62.34,27,63,27s1.31,0.01,1.96,0.04c2.22,3,4.271,6.24,6.09,9.63
			c1.75,3.22,3.29,6.56,4.61,9.95c1.25,3.19,2.3,6.42,3.12,9.6C80.22,61.74,81,67.12,81,72z"/>
		<path fill="none" stroke="#ED1C24" stroke-width="0.25" stroke-miterlimit="10" d="M108,72c0,0.66-0.01,1.31-0.04,1.96
			c-0.06,1.3-0.17,2.58-0.33,3.85c-0.6,4.61-1.89,9-3.77,13.061c-4.48,9.689-12.301,17.51-21.99,21.99
			c-4.061,1.88-8.45,3.17-13.061,3.77c-1.27,0.16-2.55,0.271-3.85,0.33c-0.65,0.03-1.3,0.04-1.96,0.04s-1.31-0.01-1.96-0.04
			c-1.3-0.06-2.58-0.17-3.85-0.33c-4.61-0.6-9-1.89-13.06-3.77c-3.59-3.71-6.75-8.021-9.33-12.66c-2.18-3.9-3.96-8.05-5.26-12.271
			h-0.01c-0.81-2.609-1.43-5.25-1.86-7.88C27.23,77.35,27,74.65,27,72c0-2.65,0.23-5.35,0.67-8.05c0.43-2.63,1.05-5.27,1.86-7.88
			h0.01c1.3-4.22,3.08-8.37,5.26-12.27c2.58-4.64,5.74-8.95,9.33-12.66c4.06-1.88,8.45-3.17,13.06-3.77
			c1.27-0.16,2.55-0.27,3.85-0.33C61.69,27.01,62.34,27,63,27s1.31,0.01,1.96,0.04c1.3,0.06,2.58,0.17,3.85,0.33
			c4.61,0.6,9,1.89,13.061,3.77c9.689,4.48,17.51,12.3,21.99,21.99c1.88,4.06,3.17,8.45,3.77,13.06c0.16,1.27,0.271,2.55,0.33,3.85
			C107.99,70.69,108,71.34,108,72z"/>
		<path fill="none" stroke="#ED1C24" stroke-width="0.25" stroke-miterlimit="10" d="M108,72c0,0.66-0.01,1.31-0.04,1.96
			c-0.06,1.3-0.17,2.58-0.33,3.85c-0.6,4.61-1.89,9-3.77,13.061c-4.48,9.689-12.301,17.51-21.99,21.99
			c-4.061,1.88-8.45,3.17-13.061,3.77c-1.27,0.16-2.55,0.271-3.85,0.33c-0.65,0.03-1.3,0.04-1.96,0.04s-1.31-0.01-1.96-0.04
			c-1.3-0.06-2.58-0.17-3.85-0.33c-3.78-3.149-7.19-6.95-10.12-11.16v-0.01c-2.44-3.53-4.54-7.33-6.24-11.29
			c-1.33-3.1-2.41-6.3-3.21-9.51C36.56,80.42,36,76.15,36,72c0-4.15,0.56-8.42,1.62-12.66c0.8-3.21,1.88-6.41,3.21-9.51
			c1.7-3.96,3.8-7.76,6.24-11.29v-0.01c2.93-4.21,6.34-8.01,10.12-11.16c1.27-0.16,2.55-0.27,3.85-0.33C61.69,27.01,62.34,27,63,27
			s1.31,0.01,1.96,0.04c1.3,0.06,2.58,0.17,3.85,0.33c4.61,0.6,9,1.89,13.061,3.77c9.689,4.48,17.51,12.3,21.99,21.99
			c1.88,4.06,3.17,8.45,3.77,13.06c0.16,1.27,0.271,2.55,0.33,3.85C107.99,70.69,108,71.34,108,72z"/>
		<path fill="none" stroke="#ED1C24" stroke-width="0.25" stroke-miterlimit="10" d="M107.96,70.04c-0.06-1.3-0.17-2.58-0.33-3.85
			c-0.6-4.61-1.89-9-3.77-13.06c-4.48-9.69-12.301-17.51-21.99-21.99c-4.061-1.88-8.45-3.17-13.061-3.77
			c-1.27-0.16-2.55-0.27-3.85-0.33C64.31,27.01,63.66,27,63,27s-1.31,0.01-1.96,0.04c-2.22,3-4.27,6.24-6.09,9.63
			c-1.75,3.22-3.29,6.56-4.61,9.95c-1.25,3.19-2.3,6.42-3.12,9.6C45.78,61.74,45,67.12,45,72s0.78,10.26,2.22,15.78
			c0.82,3.18,1.87,6.41,3.12,9.6c1.32,3.39,2.86,6.73,4.61,9.95c1.82,3.39,3.87,6.63,6.09,9.63c0.65,0.03,1.3,0.04,1.96,0.04
			s1.31-0.01,1.96-0.04c1.3-0.06,2.58-0.17,3.85-0.33c4.61-0.6,9-1.89,13.061-3.77c9.689-4.48,17.51-12.301,21.99-21.99
			c1.88-4.061,3.17-8.45,3.77-13.061c0.16-1.27,0.271-2.55,0.33-3.85c0.03-0.65,0.04-1.3,0.04-1.96S107.99,70.69,107.96,70.04z"/>
		<polyline fill="none" stroke="#ED1C24" stroke-width="0.25" stroke-miterlimit="10" points="63,117 63,108 63,99 63,90 63,72 
			63,54 63,45 63,36 63,27 		"/>
		<path fill="none" stroke="#ED1C24" stroke-width="0.25" stroke-miterlimit="10" d="M108,72c0,0.66-0.01,1.31-0.04,1.96
			c-0.06,1.3-0.17,2.58-0.33,3.85c-0.6,4.61-1.89,9-3.77,13.061c-3.71,3.59-8.021,6.75-12.66,9.33c-3.9,2.18-8.05,3.96-12.271,5.26
			v0.01c-2.609,0.811-5.25,1.431-7.88,1.86C68.35,107.77,65.65,108,63,108c-2.65,0-5.35-0.23-8.05-0.67
			c-2.63-0.43-5.27-1.05-7.88-1.86v-0.01c-4.22-1.3-8.37-3.08-12.27-5.26c-4.64-2.58-8.95-5.74-12.66-9.33
			c-1.88-4.061-3.17-8.45-3.77-13.061c-0.16-1.27-0.27-2.55-0.33-3.85C18.01,73.31,18,72.66,18,72s0.01-1.31,0.04-1.96
			c0.06-1.3,0.17-2.58,0.33-3.85c0.6-4.61,1.89-9,3.77-13.06c4.48-9.69,12.3-17.51,21.99-21.99c4.06-1.88,8.45-3.17,13.06-3.77
			c1.27-0.16,2.55-0.27,3.85-0.33C61.69,27.01,62.34,27,63,27s1.31,0.01,1.96,0.04c1.3,0.06,2.58,0.17,3.85,0.33
			c4.61,0.6,9,1.89,13.061,3.77c9.689,4.48,17.51,12.3,21.99,21.99c1.88,4.06,3.17,8.45,3.77,13.06c0.16,1.27,0.271,2.55,0.33,3.85
			C107.99,70.69,108,71.34,108,72z"/>
		<path fill="none" stroke="#ED1C24" stroke-width="0.25" stroke-miterlimit="10" d="M108,72c0,0.66-0.01,1.31-0.04,1.96
			c-0.06,1.3-0.17,2.58-0.33,3.85c-0.6,4.61-1.89,9-3.77,13.061c-4.48,9.689-12.301,17.51-21.99,21.99
			c-4.061,1.88-8.45,3.17-13.061,3.77c-1.27,0.16-2.55,0.271-3.85,0.33c-0.65,0.03-1.3,0.04-1.96,0.04s-1.31-0.01-1.96-0.04
			c-1.3-0.06-2.58-0.17-3.85-0.33c-4.61-0.6-9-1.89-13.06-3.77c-9.69-4.48-17.51-12.301-21.99-21.99
			c-1.88-4.061-3.17-8.45-3.77-13.061c-0.16-1.27-0.27-2.55-0.33-3.85C18.01,73.31,18,72.66,18,72s0.01-1.31,0.04-1.96
			c0.06-1.3,0.17-2.58,0.33-3.85c0.6-4.61,1.89-9,3.77-13.06c3.71-3.59,8.02-6.75,12.66-9.33c3.9-2.18,8.05-3.96,12.27-5.26v-0.01
			c2.61-0.81,5.25-1.43,7.88-1.86C57.65,36.23,60.35,36,63,36c2.65,0,5.35,0.23,8.05,0.67c2.63,0.43,5.271,1.05,7.88,1.86v0.01
			c4.221,1.3,8.37,3.08,12.271,5.26c4.64,2.58,8.95,5.74,12.66,9.33c1.88,4.06,3.17,8.45,3.77,13.06c0.16,1.27,0.271,2.55,0.33,3.85
			C107.99,70.69,108,71.34,108,72z"/>
		<path fill="none" stroke="#ED1C24" stroke-width="0.25" stroke-miterlimit="10" d="M108,72c0,0.66-0.01,1.31-0.04,1.96
			c-0.06,1.3-0.17,2.58-0.33,3.85c-3.149,3.78-6.95,7.19-11.16,10.12h-0.01c-3.53,2.44-7.33,4.54-11.29,6.24
			c-3.1,1.33-6.3,2.41-9.51,3.21C71.42,98.44,67.15,99,63,99c-4.15,0-8.42-0.56-12.66-1.62c-3.21-0.8-6.41-1.88-9.51-3.21
			c-3.96-1.7-7.76-3.8-11.29-6.24h-0.01c-4.21-2.93-8.01-6.34-11.16-10.12c-0.16-1.27-0.27-2.55-0.33-3.85
			C18.01,73.31,18,72.66,18,72s0.01-1.31,0.04-1.96c0.06-1.3,0.17-2.58,0.33-3.85c0.6-4.61,1.89-9,3.77-13.06
			c4.48-9.69,12.3-17.51,21.99-21.99c4.06-1.88,8.45-3.17,13.06-3.77c1.27-0.16,2.55-0.27,3.85-0.33C61.69,27.01,62.34,27,63,27
			s1.31,0.01,1.96,0.04c1.3,0.06,2.58,0.17,3.85,0.33c4.61,0.6,9,1.89,13.061,3.77c9.689,4.48,17.51,12.3,21.99,21.99
			c1.88,4.06,3.17,8.45,3.77,13.06c0.16,1.27,0.271,2.55,0.33,3.85C107.99,70.69,108,71.34,108,72z"/>
		<path fill="none" stroke="#ED1C24" stroke-width="0.25" stroke-miterlimit="10" d="M108,72c0,0.66-0.01,1.31-0.04,1.96
			c-0.06,1.3-0.17,2.58-0.33,3.85c-0.6,4.61-1.89,9-3.77,13.061c-3.71,3.59-8.021,6.75-12.66,9.33c-3.9,2.18-8.05,3.96-12.271,5.26
			v0.01c-2.609,0.811-5.25,1.431-7.88,1.86C68.35,107.77,65.65,108,63,108c-2.65,0-5.35-0.23-8.05-0.67
			c-2.63-0.43-5.27-1.05-7.88-1.86v-0.01c-4.22-1.3-8.37-3.08-12.27-5.26c-4.64-2.58-8.95-5.74-12.66-9.33
			c-1.88-4.061-3.17-8.45-3.77-13.061c-0.16-1.27-0.27-2.55-0.33-3.85C18.01,73.31,18,72.66,18,72s0.01-1.31,0.04-1.96
			c0.06-1.3,0.17-2.58,0.33-3.85c0.6-4.61,1.89-9,3.77-13.06c4.48-9.69,12.3-17.51,21.99-21.99c4.06-1.88,8.45-3.17,13.06-3.77
			c1.27-0.16,2.55-0.27,3.85-0.33C61.69,27.01,62.34,27,63,27s1.31,0.01,1.96,0.04c1.3,0.06,2.58,0.17,3.85,0.33
			c4.61,0.6,9,1.89,13.061,3.77c9.689,4.48,17.51,12.3,21.99,21.99c1.88,4.06,3.17,8.45,3.77,13.06c0.16,1.27,0.271,2.55,0.33,3.85
			C107.99,70.69,108,71.34,108,72z"/>
		<path fill="none" stroke="#ED1C24" stroke-width="0.25" stroke-miterlimit="10" d="M108,72c0,0.66-0.01,1.31-0.04,1.96
			c-3,2.22-6.24,4.271-9.63,6.09c-3.22,1.75-6.561,3.29-9.95,4.61c-3.189,1.25-6.42,2.3-9.6,3.12C73.26,89.22,67.88,90,63,90
			s-10.26-0.78-15.78-2.22c-3.18-0.82-6.41-1.87-9.6-3.12c-3.39-1.32-6.73-2.86-9.95-4.61c-3.39-1.819-6.63-3.87-9.63-6.09
			C18.01,73.31,18,72.66,18,72s0.01-1.31,0.04-1.96c0.06-1.3,0.17-2.58,0.33-3.85c0.6-4.61,1.89-9,3.77-13.06
			c4.48-9.69,12.3-17.51,21.99-21.99c4.06-1.88,8.45-3.17,13.06-3.77c1.27-0.16,2.55-0.27,3.85-0.33C61.69,27.01,62.34,27,63,27
			s1.31,0.01,1.96,0.04c1.3,0.06,2.58,0.17,3.85,0.33c4.61,0.6,9,1.89,13.061,3.77c9.689,4.48,17.51,12.3,21.99,21.99
			c1.88,4.06,3.17,8.45,3.77,13.06c0.16,1.27,0.271,2.55,0.33,3.85C107.99,70.69,108,71.34,108,72z"/>
		<path fill="none" stroke="#ED1C24" stroke-width="0.25" stroke-miterlimit="10" d="M108,72c0,0.66-0.01,1.31-0.04,1.96
			c-0.06,1.3-0.17,2.58-0.33,3.85c-0.6,4.61-1.89,9-3.77,13.061c-4.48,9.689-12.301,17.51-21.99,21.99
			c-4.061,1.88-8.45,3.17-13.061,3.77c-1.27,0.16-2.55,0.271-3.85,0.33c-0.65,0.03-1.3,0.04-1.96,0.04s-1.31-0.01-1.96-0.04
			c-1.3-0.06-2.58-0.17-3.85-0.33c-4.61-0.6-9-1.89-13.06-3.77c-9.69-4.48-17.51-12.301-21.99-21.99
			c-1.88-4.061-3.17-8.45-3.77-13.061c-0.16-1.27-0.27-2.55-0.33-3.85C18.01,73.31,18,72.66,18,72s0.01-1.31,0.04-1.96
			c0.06-1.3,0.17-2.58,0.33-3.85c0.6-4.61,1.89-9,3.77-13.06c3.71-3.59,8.02-6.75,12.66-9.33c3.9-2.18,8.05-3.96,12.27-5.26v-0.01
			c2.61-0.81,5.25-1.43,7.88-1.86C57.65,36.23,60.35,36,63,36c2.65,0,5.35,0.23,8.05,0.67c2.63,0.43,5.271,1.05,7.88,1.86v0.01
			c4.221,1.3,8.37,3.08,12.271,5.26c4.64,2.58,8.95,5.74,12.66,9.33c1.88,4.06,3.17,8.45,3.77,13.06c0.16,1.27,0.271,2.55,0.33,3.85
			C107.99,70.69,108,71.34,108,72z"/>
		<path fill="none" stroke="#ED1C24" stroke-width="0.25" stroke-miterlimit="10" d="M108,72c0,0.66-0.01,1.31-0.04,1.96
			c-0.06,1.3-0.17,2.58-0.33,3.85c-0.6,4.61-1.89,9-3.77,13.061c-4.48,9.689-12.301,17.51-21.99,21.99
			c-4.061,1.88-8.45,3.17-13.061,3.77c-1.27,0.16-2.55,0.271-3.85,0.33c-0.65,0.03-1.3,0.04-1.96,0.04s-1.31-0.01-1.96-0.04
			c-1.3-0.06-2.58-0.17-3.85-0.33c-4.61-0.6-9-1.89-13.06-3.77c-9.69-4.48-17.51-12.301-21.99-21.99
			c-1.88-4.061-3.17-8.45-3.77-13.061c-0.16-1.27-0.27-2.55-0.33-3.85C18.01,73.31,18,72.66,18,72s0.01-1.31,0.04-1.96
			c0.06-1.3,0.17-2.58,0.33-3.85c3.15-3.78,6.95-7.19,11.16-10.12h0.01c3.53-2.44,7.33-4.54,11.29-6.24c3.1-1.33,6.3-2.41,9.51-3.21
			C54.58,45.56,58.85,45,63,45c4.15,0,8.42,0.56,12.66,1.62c3.21,0.8,6.41,1.88,9.51,3.21c3.96,1.7,7.76,3.8,11.29,6.24h0.01
			c4.21,2.93,8.011,6.34,11.16,10.12c0.16,1.27,0.271,2.55,0.33,3.85C107.99,70.69,108,71.34,108,72z"/>
		<path fill="none" stroke="#ED1C24" stroke-width="0.25" stroke-miterlimit="10" d="M108,72c0,0.66-0.01,1.31-0.04,1.96
			c-0.06,1.3-0.17,2.58-0.33,3.85c-0.6,4.61-1.89,9-3.77,13.061c-4.48,9.689-12.301,17.51-21.99,21.99
			c-4.061,1.88-8.45,3.17-13.061,3.77c-1.27,0.16-2.55,0.271-3.85,0.33c-0.65,0.03-1.3,0.04-1.96,0.04s-1.31-0.01-1.96-0.04
			c-1.3-0.06-2.58-0.17-3.85-0.33c-4.61-0.6-9-1.89-13.06-3.77c-9.69-4.48-17.51-12.301-21.99-21.99
			c-1.88-4.061-3.17-8.45-3.77-13.061c-0.16-1.27-0.27-2.55-0.33-3.85C18.01,73.31,18,72.66,18,72s0.01-1.31,0.04-1.96
			c3-2.22,6.24-4.27,9.63-6.09c3.22-1.75,6.56-3.29,9.95-4.61c3.19-1.25,6.42-2.3,9.6-3.12C52.74,54.78,58.12,54,63,54
			s10.26,0.78,15.78,2.22c3.18,0.82,6.41,1.87,9.6,3.12c3.39,1.32,6.73,2.86,9.95,4.61c3.39,1.82,6.63,3.87,9.63,6.09
			C107.99,70.69,108,71.34,108,72z"/>
		<polyline fill="none" stroke="#ED1C24" stroke-width="0.25" stroke-miterlimit="10" points="18,72 27,72 36,72 45,72 63,72 81,72 
			90,72 99,72 108,72 		"/>
		<g>
			<path fill="#ED1C24" d="M67.5,45c0,0,0.443,0.26,1.178,0.757c0.732,0.497,1.766,1.223,2.944,2.152
				c2.392,1.828,5.372,4.471,8.188,7.28c2.811,2.814,5.457,5.793,7.283,8.186c0.93,1.18,1.654,2.213,2.15,2.947
				C89.741,67.056,90,67.5,90,67.5s-0.444-0.259-1.178-0.756c-0.734-0.496-1.768-1.221-2.947-2.15
				c-2.393-1.826-5.371-4.473-8.186-7.283c-2.809-2.816-5.452-5.797-7.279-8.188c-0.93-1.179-1.656-2.211-2.152-2.945
				C67.76,45.444,67.5,45,67.5,45z"/>
		</g>
		<g>
			<path fill="#ED1C24" d="M90,45c0,0-0.26,0.443-0.758,1.177c-0.496,0.733-1.223,1.766-2.152,2.945
				c-1.827,2.391-4.471,5.373-7.279,8.189c-2.814,2.811-5.793,5.457-8.186,7.282c-1.18,0.931-2.213,1.654-2.947,2.151
				C67.944,67.24,67.5,67.5,67.5,67.5s0.259-0.445,0.756-1.178c0.496-0.734,1.221-1.768,2.15-2.947
				c1.826-2.393,4.473-5.372,7.283-8.186c2.816-2.809,5.797-5.453,8.188-7.28c1.179-0.93,2.212-1.655,2.944-2.152
				C89.557,45.26,90,45,90,45z"/>
		</g>
	</g>
	<g id="spares" display="none">
		<polygon display="inline" fill="#ED1C24" points="-18,18 -27,15.364 -36,18 -33.364,9 -36,0 -27,2.636 -18,0 -20.637,9 		"/>
		<polygon display="inline" fill="#ED1C24" points="-63,36 -72,33.364 -81,36 -78.364,27 -81,18 -72,20.636 -63,18 -65.637,27 		"/>
		<line display="inline" fill="none" x1="194.04" y1="88.92" x2="162" y2="99"/>
		<line display="inline" fill="none" x1="234" y1="88.92" x2="180.721" y2="88.92"/>
		<circle display="inline" fill="none" stroke="#ED1C24" stroke-width="0.25" stroke-miterlimit="10" cx="306" cy="54" r="45"/>
		<circle display="inline" fill="none" stroke="#ED1C24" stroke-width="0.25" stroke-miterlimit="10" cx="207" cy="81" r="45"/>
		<circle display="inline" fill="none" stroke="#ED1C24" stroke-width="0.25" stroke-miterlimit="10" cx="207" cy="99" r="45"/>
		<circle display="inline" fill="none" stroke="#ED1C24" stroke-width="0.25" stroke-miterlimit="10" cx="216" cy="54" r="45"/>
		<circle display="inline" fill="none" stroke="#ED1C24" stroke-width="0.25" stroke-miterlimit="10" cx="198" cy="54" r="45"/>
		<circle display="inline" fill="none" stroke="#ED1C24" stroke-width="0.25" stroke-miterlimit="10" cx="225" cy="54" r="45"/>
		<circle display="inline" fill="none" stroke="#ED1C24" stroke-width="0.25" stroke-miterlimit="10" cx="189" cy="54" r="45"/>
		<circle display="inline" fill="none" stroke="#ED1C24" stroke-width="0.25" stroke-miterlimit="10" cx="207" cy="63" r="45"/>
		<line display="inline" fill="none" x1="194.04" y1="88.92" x2="162" y2="99"/>
		<line display="inline" fill="none" x1="234" y1="88.92" x2="180.721" y2="88.92"/>
		<circle display="inline" fill="none" stroke="#ED1C24" stroke-width="0.25" stroke-miterlimit="10" cx="306" cy="54" r="45"/>
		<circle display="inline" fill="none" stroke="#ED1C24" stroke-width="0.25" stroke-miterlimit="10" cx="207" cy="81" r="45"/>
		<circle display="inline" fill="none" stroke="#ED1C24" stroke-width="0.25" stroke-miterlimit="10" cx="207" cy="99" r="45"/>
		<circle display="inline" fill="none" stroke="#ED1C24" stroke-width="0.25" stroke-miterlimit="10" cx="216" cy="54" r="45"/>
		<circle display="inline" fill="none" stroke="#ED1C24" stroke-width="0.25" stroke-miterlimit="10" cx="198" cy="54" r="45"/>
		<circle display="inline" fill="none" stroke="#ED1C24" stroke-width="0.25" stroke-miterlimit="10" cx="225" cy="54" r="45"/>
		<circle display="inline" fill="none" stroke="#ED1C24" stroke-width="0.25" stroke-miterlimit="10" cx="189" cy="54" r="45"/>
		<circle display="inline" fill="none" stroke="#ED1C24" stroke-width="0.25" stroke-miterlimit="10" cx="207" cy="63" r="45"/>
	</g>
</g>
<g id="Popviz--new" display="none">
	<path display="inline" fill="#FFFFFF" stroke="#0C140D" stroke-width="0.5" stroke-miterlimit="10" d="M113.262,117.267
		c0,5.368-4.352,9.721-9.719,9.721h-81.81c-5.368,0-9.72-4.353-9.72-9.721V23.307c0-5.368,4.352-9.72,9.72-9.72h81.81
		c5.367,0,9.719,4.352,9.719,9.72V117.267z"/>
	<g id="iconpersdon" display="inline">
		<g id="Layer_64_copy_3">
		</g>
		<circle fill="#9E1C3D" cx="-36" cy="41.13" r="12.87"/>
		<path fill="#9E1C3D" d="M-18,108h-36c0-19.88,8.061-45,18-45S-18,88.12-18,108z"/>
	</g>
	<line display="inline" fill="none" x1="50.04" y1="106.92" x2="18" y2="117"/>
	<line display="inline" fill="none" x1="90" y1="106.92" x2="36.721" y2="106.92"/>
	<g id="Layer_17" display="inline">
	</g>
	<rect x="-18" display="inline" fill="#253C97" width="162" height="45"/>
	<rect x="-9" y="54" display="inline" fill="#D72029" width="144" height="9"/>
	<rect x="-9" y="72" display="inline" fill="#D72029" width="144" height="9"/>
	<rect x="-9" y="90" display="inline" fill="#D72029" width="144" height="9"/>
	<rect x="-18" y="108" display="inline" fill="#D72029" width="144" height="9"/>
</g>
<g id="Popviz--new_copy" display="none">
	<g id="iconpersdon_copy" display="inline">
		<g id="Layer_64_copy_4">
		</g>
		<circle fill="#9E1C3D" cx="-36" cy="41.13" r="12.87"/>
		<path fill="#9E1C3D" d="M-18,108h-36c0-19.88,8.061-45,18-45S-18,88.12-18,108z"/>
	</g>
	<path display="inline" fill="#FFFFFF" stroke="#0C140D" stroke-width="0.5" stroke-miterlimit="10" d="M113.262,117.267
		c0,5.368-4.352,9.721-9.719,9.721h-81.81c-5.368,0-9.72-4.353-9.72-9.721V23.307c0-5.368,4.352-9.72,9.72-9.72h81.81
		c5.367,0,9.719,4.352,9.719,9.72V117.267z"/>
	
		<line display="inline" fill="none" stroke="#000000" stroke-width="0.25" stroke-miterlimit="10" x1="0" y1="44.75" x2="125" y2="44.75"/>
	<line display="inline" fill="none" x1="50.04" y1="106.92" x2="18" y2="117"/>
	<line display="inline" fill="none" x1="90" y1="106.92" x2="36.721" y2="106.92"/>
	<g id="Layer_17_copy" display="inline">
	</g>
	<rect x="-18" y="9" display="inline" fill="#253C97" width="162" height="45"/>
	<rect y="44.75" display="inline" fill="#D72029" width="125" height="95.25"/>
	<line display="inline" fill="none" stroke="#FFFFFF" stroke-width="3" stroke-miterlimit="10" x1="-9" y1="63" x2="135" y2="63"/>
	<line display="inline" fill="none" stroke="#FFFFFF" stroke-width="3" stroke-miterlimit="10" x1="-9" y1="81" x2="135" y2="81"/>
	<line display="inline" fill="none" stroke="#FFFFFF" stroke-width="3" stroke-miterlimit="10" x1="-9" y1="99" x2="135" y2="99"/>
	
		<line display="inline" fill="none" stroke="#FFFFFF" stroke-width="3" stroke-miterlimit="10" x1="-13.5" y1="116.75" x2="130.5" y2="116.75"/>
</g>
<g id="presso" display="none">
	<path display="inline" fill="#8EA8D7" d="M113.262,117.267c0,5.368-4.352,9.721-9.719,9.721h-81.81c-5.368,0-9.72-4.353-9.72-9.721
		V23.307c0-5.368,4.352-9.72,9.72-9.72h81.81c5.367,0,9.719,4.352,9.719,9.72V117.267z"/>
	<g id="Layer_56_copy_3" display="inline">
		<g id="Layer_64_copy_2">
		</g>
	</g>
	<line display="inline" fill="none" x1="50.04" y1="106.92" x2="18" y2="117"/>
	<line display="inline" fill="none" x1="90" y1="106.92" x2="36.721" y2="106.92"/>
</g>
</svg>
